<?xml version="1.0" encoding="UTF-8"?>
<svg viewBox="0 0 1018 873" version="1.1" xmlns="http://www.w3.org/2000/svg" xmlns:xlink="http://www.w3.org/1999/xlink" width="26px" height="26px">
    <title>Shape</title>
    <g id="Page-1" stroke="none" stroke-width="1" fill="none" fill-rule="evenodd">
        <g id="shuffle" fill="#18C683" fill-rule="nonzero">
            <path d="M399,355 L439,300 L304,116 L0,116 L0,180 L271,180 L399,355 Z M916,180 L838,250 C833.333333,254.666667 830.666667,260 830,266 C829.333333,272 831,277.333333 835,282 L841,290 C845.666667,294.666667 851.333333,297 858,297 C864.666667,297 870.333333,294.666667 875,290 L1002,175 L1002.5,175 L1003,174 L1011,166 C1015.66667,162 1018,156.833333 1018,150.5 C1018,144.166667 1015.66667,138.666667 1011,134 L1003,126 L1002,126 L1002,125 L873,7 C870.333333,5 867.5,3.33333333 864.5,2 C861.5,0.666666667 858.5,0 855.5,0 C852.5,0 849.5,0.666666667 846.5,2 C843.5,3.33333333 841,5 839,7 L833,15 C829,19.6666667 827.333333,25 828,31 C828.666667,37 831.333333,42.3333333 836,47 L912,116 L681,116 L271,692 L0,692 L0,756 L304,756 L714,180 L916,180 Z M1003,702 L1002,702 L1002,701 L873,583 C869.666667,580.333333 866,578.333333 862,577 C858,575.666667 853.833333,575.666667 849.5,577 C845.166667,578.333333 841.666667,580.333333 839,583 L833,591 C830.333333,593.666667 828.666667,597 828,601 C827.333333,605 827.833333,609 829.5,613 C831.166667,617 833.333333,620.333333 836,623 L913,693 L714,692 L599,515 L560,571 L681,756 L915,757 L838,826 C833.333333,830.666667 830.666667,836 830,842 C829.333333,848 831,853.333333 835,858 L841,866 C843,868.666667 845.5,870.5 848.5,871.5 C851.5,872.5 854.5,873 857.5,873 C860.5,873 863.5,872.5 866.5,871.5 C869.5,870.5 872.333333,868.666667 875,866 L1002,751 L1002.5,751 L1003,750 L1011,742 C1015.66667,738 1018,732.833333 1018,726.5 C1018,720.166667 1015.66667,714.666667 1011,710 L1003,702 Z" id="Shape"></path>
        </g>
    </g>
</svg>